<mxfile host="app.diagrams.net" modified="2022-12-17T09:26:12.012Z" agent="5.0 (Macintosh; Intel Mac OS X 10_15_7) AppleWebKit/605.1.15 (KHTML, like Gecko) Version/16.1 Safari/605.1.15" etag="x16S7kGJsYgJcQrpgKUk" version="20.7.4" type="github">
  <diagram id="C5RBs43oDa-KdzZeNtuy" name="Page-1">
    <mxGraphModel dx="954" dy="675" grid="1" gridSize="10" guides="1" tooltips="1" connect="1" arrows="1" fold="1" page="1" pageScale="1" pageWidth="827" pageHeight="1169" math="0" shadow="0">
      <root>
        <mxCell id="WIyWlLk6GJQsqaUBKTNV-0" />
        <mxCell id="WIyWlLk6GJQsqaUBKTNV-1" parent="WIyWlLk6GJQsqaUBKTNV-0" />
        <mxCell id="5rvCGq3Degy2VzU96XG3-25" style="edgeStyle=orthogonalEdgeStyle;rounded=0;orthogonalLoop=1;jettySize=auto;html=1;entryX=0.5;entryY=0;entryDx=0;entryDy=0;" edge="1" parent="WIyWlLk6GJQsqaUBKTNV-1" source="WIyWlLk6GJQsqaUBKTNV-3" target="WIyWlLk6GJQsqaUBKTNV-11">
          <mxGeometry relative="1" as="geometry" />
        </mxCell>
        <mxCell id="WIyWlLk6GJQsqaUBKTNV-3" value="int tarih[5]" style="rounded=1;whiteSpace=wrap;html=1;fontSize=12;glass=0;strokeWidth=1;shadow=0;" parent="WIyWlLk6GJQsqaUBKTNV-1" vertex="1">
          <mxGeometry x="520" y="250" width="120" height="40" as="geometry" />
        </mxCell>
        <mxCell id="5rvCGq3Degy2VzU96XG3-18" style="edgeStyle=orthogonalEdgeStyle;rounded=0;orthogonalLoop=1;jettySize=auto;html=1;entryX=0.5;entryY=0;entryDx=0;entryDy=0;" edge="1" parent="WIyWlLk6GJQsqaUBKTNV-1" source="WIyWlLk6GJQsqaUBKTNV-6" target="5rvCGq3Degy2VzU96XG3-17">
          <mxGeometry relative="1" as="geometry" />
        </mxCell>
        <mxCell id="5rvCGq3Degy2VzU96XG3-20" value="Evet" style="edgeLabel;html=1;align=center;verticalAlign=middle;resizable=0;points=[];" vertex="1" connectable="0" parent="5rvCGq3Degy2VzU96XG3-18">
          <mxGeometry x="-0.4348" y="1" relative="1" as="geometry">
            <mxPoint x="5" y="2" as="offset" />
          </mxGeometry>
        </mxCell>
        <mxCell id="5rvCGq3Degy2VzU96XG3-19" value="Hayır" style="edgeStyle=orthogonalEdgeStyle;rounded=0;orthogonalLoop=1;jettySize=auto;html=1;exitX=0;exitY=0.5;exitDx=0;exitDy=0;entryX=1;entryY=0.5;entryDx=0;entryDy=0;entryPerimeter=0;" edge="1" parent="WIyWlLk6GJQsqaUBKTNV-1" source="WIyWlLk6GJQsqaUBKTNV-6" target="5rvCGq3Degy2VzU96XG3-13">
          <mxGeometry x="-0.1111" y="-10" relative="1" as="geometry">
            <mxPoint as="offset" />
          </mxGeometry>
        </mxCell>
        <mxCell id="WIyWlLk6GJQsqaUBKTNV-6" value="Yeni randevu oluşturmak ister misiniz?" style="rhombus;whiteSpace=wrap;html=1;shadow=0;fontFamily=Helvetica;fontSize=12;align=center;strokeWidth=1;spacing=6;spacingTop=-4;" parent="WIyWlLk6GJQsqaUBKTNV-1" vertex="1">
          <mxGeometry x="354" y="435" width="120" height="110" as="geometry" />
        </mxCell>
        <mxCell id="5rvCGq3Degy2VzU96XG3-26" style="edgeStyle=orthogonalEdgeStyle;rounded=0;orthogonalLoop=1;jettySize=auto;html=1;entryX=0.5;entryY=0;entryDx=0;entryDy=0;" edge="1" parent="WIyWlLk6GJQsqaUBKTNV-1" source="WIyWlLk6GJQsqaUBKTNV-11" target="5rvCGq3Degy2VzU96XG3-5">
          <mxGeometry relative="1" as="geometry" />
        </mxCell>
        <mxCell id="WIyWlLk6GJQsqaUBKTNV-11" value="n = 0" style="rounded=1;whiteSpace=wrap;html=1;fontSize=12;glass=0;strokeWidth=1;shadow=0;" parent="WIyWlLk6GJQsqaUBKTNV-1" vertex="1">
          <mxGeometry x="520" y="320" width="120" height="40" as="geometry" />
        </mxCell>
        <mxCell id="5rvCGq3Degy2VzU96XG3-2" style="edgeStyle=orthogonalEdgeStyle;rounded=0;orthogonalLoop=1;jettySize=auto;html=1;entryX=0.5;entryY=0;entryDx=0;entryDy=0;" edge="1" parent="WIyWlLk6GJQsqaUBKTNV-1" source="5rvCGq3Degy2VzU96XG3-0" target="5rvCGq3Degy2VzU96XG3-1">
          <mxGeometry relative="1" as="geometry" />
        </mxCell>
        <mxCell id="5rvCGq3Degy2VzU96XG3-0" value="Başla" style="strokeWidth=1;html=1;shape=mxgraph.flowchart.start_2;whiteSpace=wrap;strokeColor=default;" vertex="1" parent="WIyWlLk6GJQsqaUBKTNV-1">
          <mxGeometry x="540" y="60" width="80" height="80" as="geometry" />
        </mxCell>
        <mxCell id="5rvCGq3Degy2VzU96XG3-4" style="edgeStyle=orthogonalEdgeStyle;rounded=0;orthogonalLoop=1;jettySize=auto;html=1;entryX=0.5;entryY=0;entryDx=0;entryDy=0;" edge="1" parent="WIyWlLk6GJQsqaUBKTNV-1" source="5rvCGq3Degy2VzU96XG3-1" target="WIyWlLk6GJQsqaUBKTNV-3">
          <mxGeometry relative="1" as="geometry" />
        </mxCell>
        <mxCell id="5rvCGq3Degy2VzU96XG3-1" value="tarih" style="shape=parallelogram;perimeter=parallelogramPerimeter;whiteSpace=wrap;html=1;dashed=0;" vertex="1" parent="WIyWlLk6GJQsqaUBKTNV-1">
          <mxGeometry x="530" y="170" width="100" height="50" as="geometry" />
        </mxCell>
        <mxCell id="5rvCGq3Degy2VzU96XG3-27" style="edgeStyle=orthogonalEdgeStyle;rounded=0;orthogonalLoop=1;jettySize=auto;html=1;entryX=0.5;entryY=0;entryDx=0;entryDy=0;" edge="1" parent="WIyWlLk6GJQsqaUBKTNV-1" source="5rvCGq3Degy2VzU96XG3-5" target="5rvCGq3Degy2VzU96XG3-9">
          <mxGeometry relative="1" as="geometry" />
        </mxCell>
        <mxCell id="5rvCGq3Degy2VzU96XG3-5" value="saat" style="shape=parallelogram;perimeter=parallelogramPerimeter;whiteSpace=wrap;html=1;dashed=0;" vertex="1" parent="WIyWlLk6GJQsqaUBKTNV-1">
          <mxGeometry x="530" y="390" width="100" height="50" as="geometry" />
        </mxCell>
        <mxCell id="5rvCGq3Degy2VzU96XG3-11" style="edgeStyle=orthogonalEdgeStyle;rounded=0;orthogonalLoop=1;jettySize=auto;html=1;entryX=1;entryY=0.5;entryDx=0;entryDy=0;" edge="1" parent="WIyWlLk6GJQsqaUBKTNV-1" source="5rvCGq3Degy2VzU96XG3-9" target="WIyWlLk6GJQsqaUBKTNV-6">
          <mxGeometry relative="1" as="geometry" />
        </mxCell>
        <mxCell id="5rvCGq3Degy2VzU96XG3-9" value="tarih[n] = saat" style="rounded=1;whiteSpace=wrap;html=1;fontSize=12;glass=0;strokeWidth=1;shadow=0;" vertex="1" parent="WIyWlLk6GJQsqaUBKTNV-1">
          <mxGeometry x="520" y="470" width="120" height="40" as="geometry" />
        </mxCell>
        <mxCell id="5rvCGq3Degy2VzU96XG3-31" style="edgeStyle=orthogonalEdgeStyle;rounded=0;orthogonalLoop=1;jettySize=auto;html=1;entryX=1;entryY=0.5;entryDx=0;entryDy=0;entryPerimeter=0;" edge="1" parent="WIyWlLk6GJQsqaUBKTNV-1" source="5rvCGq3Degy2VzU96XG3-13" target="5rvCGq3Degy2VzU96XG3-30">
          <mxGeometry relative="1" as="geometry" />
        </mxCell>
        <mxCell id="5rvCGq3Degy2VzU96XG3-13" value="tarih" style="strokeWidth=1;html=1;shape=mxgraph.flowchart.document2;whiteSpace=wrap;size=0.25;" vertex="1" parent="WIyWlLk6GJQsqaUBKTNV-1">
          <mxGeometry x="200" y="460" width="100" height="60" as="geometry" />
        </mxCell>
        <mxCell id="5rvCGq3Degy2VzU96XG3-22" style="edgeStyle=orthogonalEdgeStyle;rounded=0;orthogonalLoop=1;jettySize=auto;html=1;entryX=0;entryY=0.5;entryDx=0;entryDy=0;" edge="1" parent="WIyWlLk6GJQsqaUBKTNV-1" source="5rvCGq3Degy2VzU96XG3-17" target="5rvCGq3Degy2VzU96XG3-21">
          <mxGeometry relative="1" as="geometry" />
        </mxCell>
        <mxCell id="5rvCGq3Degy2VzU96XG3-23" value="Evet" style="edgeLabel;html=1;align=center;verticalAlign=middle;resizable=0;points=[];" vertex="1" connectable="0" parent="5rvCGq3Degy2VzU96XG3-22">
          <mxGeometry x="-0.3043" y="3" relative="1" as="geometry">
            <mxPoint y="-2" as="offset" />
          </mxGeometry>
        </mxCell>
        <mxCell id="5rvCGq3Degy2VzU96XG3-28" style="edgeStyle=orthogonalEdgeStyle;rounded=0;orthogonalLoop=1;jettySize=auto;html=1;entryX=0.5;entryY=0.917;entryDx=0;entryDy=0;entryPerimeter=0;" edge="1" parent="WIyWlLk6GJQsqaUBKTNV-1" source="5rvCGq3Degy2VzU96XG3-17" target="5rvCGq3Degy2VzU96XG3-13">
          <mxGeometry relative="1" as="geometry" />
        </mxCell>
        <mxCell id="5rvCGq3Degy2VzU96XG3-29" value="Hayır" style="edgeLabel;html=1;align=center;verticalAlign=middle;resizable=0;points=[];" vertex="1" connectable="0" parent="5rvCGq3Degy2VzU96XG3-28">
          <mxGeometry x="-0.3814" y="-3" relative="1" as="geometry">
            <mxPoint x="26" y="-2" as="offset" />
          </mxGeometry>
        </mxCell>
        <mxCell id="5rvCGq3Degy2VzU96XG3-17" value="tarih[5] == NULL" style="rhombus;whiteSpace=wrap;html=1;shadow=0;fontFamily=Helvetica;fontSize=12;align=center;strokeWidth=1;spacing=6;spacingTop=-4;" vertex="1" parent="WIyWlLk6GJQsqaUBKTNV-1">
          <mxGeometry x="354" y="580" width="120" height="110" as="geometry" />
        </mxCell>
        <mxCell id="5rvCGq3Degy2VzU96XG3-24" style="edgeStyle=orthogonalEdgeStyle;rounded=0;orthogonalLoop=1;jettySize=auto;html=1;entryX=1;entryY=0.5;entryDx=0;entryDy=0;exitX=1;exitY=0.5;exitDx=0;exitDy=0;" edge="1" parent="WIyWlLk6GJQsqaUBKTNV-1" source="5rvCGq3Degy2VzU96XG3-21" target="5rvCGq3Degy2VzU96XG3-5">
          <mxGeometry relative="1" as="geometry">
            <Array as="points">
              <mxPoint x="670" y="635" />
              <mxPoint x="670" y="415" />
            </Array>
          </mxGeometry>
        </mxCell>
        <mxCell id="5rvCGq3Degy2VzU96XG3-21" value="n++" style="rounded=1;whiteSpace=wrap;html=1;fontSize=12;glass=0;strokeWidth=1;shadow=0;" vertex="1" parent="WIyWlLk6GJQsqaUBKTNV-1">
          <mxGeometry x="520" y="615" width="120" height="40" as="geometry" />
        </mxCell>
        <mxCell id="5rvCGq3Degy2VzU96XG3-30" value="Dur" style="strokeWidth=1;html=1;shape=mxgraph.flowchart.start_2;whiteSpace=wrap;strokeColor=default;" vertex="1" parent="WIyWlLk6GJQsqaUBKTNV-1">
          <mxGeometry x="80" y="450" width="80" height="80" as="geometry" />
        </mxCell>
      </root>
    </mxGraphModel>
  </diagram>
</mxfile>
